<mxfile host="65bd71144e">
    <diagram id="_gR6j4K9Zca0Elad2zaY" name="Página web">
        <mxGraphModel dx="962" dy="563" grid="1" gridSize="10" guides="1" tooltips="1" connect="1" arrows="1" fold="1" page="1" pageScale="1" pageWidth="827" pageHeight="1169" math="0" shadow="0">
            <root>
                <mxCell id="0"/>
                <mxCell id="1" parent="0"/>
                <mxCell id="2" value="Usuário" style="shape=umlActor;verticalLabelPosition=bottom;verticalAlign=top;html=1;outlineConnect=0;" parent="1" vertex="1">
                    <mxGeometry x="80" y="470" width="30" height="60" as="geometry"/>
                </mxCell>
                <mxCell id="5" value="" style="edgeStyle=none;html=1;" parent="1" source="3" target="4" edge="1">
                    <mxGeometry relative="1" as="geometry"/>
                </mxCell>
                <mxCell id="3" value="Acessar página web" style="rounded=0;whiteSpace=wrap;html=1;" parent="1" vertex="1">
                    <mxGeometry x="230" y="360" width="120" height="60" as="geometry"/>
                </mxCell>
                <mxCell id="7" value="" style="edgeStyle=none;html=1;" parent="1" source="4" target="6" edge="1">
                    <mxGeometry relative="1" as="geometry"/>
                </mxCell>
                <mxCell id="4" value="Preencher os campos solicitados" style="rounded=0;whiteSpace=wrap;html=1;" parent="1" vertex="1">
                    <mxGeometry x="230" y="500" width="120" height="60" as="geometry"/>
                </mxCell>
                <mxCell id="6" value="Submeter o formulário" style="rounded=0;whiteSpace=wrap;html=1;" parent="1" vertex="1">
                    <mxGeometry x="230" y="630" width="120" height="60" as="geometry"/>
                </mxCell>
                <mxCell id="11" value="Início" style="rounded=1;whiteSpace=wrap;html=1;" parent="1" vertex="1">
                    <mxGeometry x="550" y="220" width="120" height="60" as="geometry"/>
                </mxCell>
                <mxCell id="12" value="" style="endArrow=none;dashed=1;html=1;exitX=0.5;exitY=0;exitDx=0;exitDy=0;" parent="1" source="13" edge="1">
                    <mxGeometry width="50" height="50" relative="1" as="geometry">
                        <mxPoint x="610" y="1050" as="sourcePoint"/>
                        <mxPoint x="610" y="280" as="targetPoint"/>
                        <Array as="points">
                            <mxPoint x="610" y="1220"/>
                        </Array>
                    </mxGeometry>
                </mxCell>
                <mxCell id="13" value="Fim" style="rounded=1;whiteSpace=wrap;html=1;" parent="1" vertex="1">
                    <mxGeometry x="550" y="1250" width="120" height="60" as="geometry"/>
                </mxCell>
                <mxCell id="15" value="Título" style="shape=document;whiteSpace=wrap;html=1;boundedLbl=1;" parent="1" vertex="1">
                    <mxGeometry x="760" y="350" width="120" height="80" as="geometry"/>
                </mxCell>
                <mxCell id="18" value="" style="endArrow=none;dashed=1;html=1;entryX=0;entryY=0.625;entryDx=0;entryDy=0;entryPerimeter=0;" parent="1" target="15" edge="1">
                    <mxGeometry width="50" height="50" relative="1" as="geometry">
                        <mxPoint x="610" y="400" as="sourcePoint"/>
                        <mxPoint x="660" y="350" as="targetPoint"/>
                    </mxGeometry>
                </mxCell>
                <mxCell id="19" value="" style="endArrow=none;dashed=1;html=1;" parent="1" edge="1">
                    <mxGeometry width="50" height="50" relative="1" as="geometry">
                        <mxPoint x="610" y="520" as="sourcePoint"/>
                        <mxPoint x="760" y="520" as="targetPoint"/>
                    </mxGeometry>
                </mxCell>
                <mxCell id="29" value="" style="edgeStyle=none;html=1;" parent="1" source="20" target="23" edge="1">
                    <mxGeometry relative="1" as="geometry"/>
                </mxCell>
                <mxCell id="20" value="Campo nome" style="shape=document;whiteSpace=wrap;html=1;boundedLbl=1;" parent="1" vertex="1">
                    <mxGeometry x="760" y="620" width="120" height="80" as="geometry"/>
                </mxCell>
                <mxCell id="30" value="" style="edgeStyle=none;html=1;" parent="1" source="23" target="25" edge="1">
                    <mxGeometry relative="1" as="geometry"/>
                </mxCell>
                <mxCell id="23" value="Campo e-mail" style="shape=document;whiteSpace=wrap;html=1;boundedLbl=1;" parent="1" vertex="1">
                    <mxGeometry x="760" y="730" width="120" height="80" as="geometry"/>
                </mxCell>
                <mxCell id="32" value="" style="edgeStyle=none;html=1;" parent="1" source="25" target="31" edge="1">
                    <mxGeometry relative="1" as="geometry"/>
                </mxCell>
                <mxCell id="25" value="Campo telefone" style="shape=document;whiteSpace=wrap;html=1;boundedLbl=1;" parent="1" vertex="1">
                    <mxGeometry x="760" y="840" width="120" height="80" as="geometry"/>
                </mxCell>
                <mxCell id="28" value="" style="edgeStyle=none;html=1;" parent="1" source="27" target="20" edge="1">
                    <mxGeometry relative="1" as="geometry"/>
                </mxCell>
                <mxCell id="27" value="Form" style="shape=document;whiteSpace=wrap;html=1;boundedLbl=1;" parent="1" vertex="1">
                    <mxGeometry x="760" y="480" width="120" height="80" as="geometry"/>
                </mxCell>
                <mxCell id="31" value="Botão submissão" style="shape=document;whiteSpace=wrap;html=1;boundedLbl=1;" parent="1" vertex="1">
                    <mxGeometry x="760" y="950" width="120" height="80" as="geometry"/>
                </mxCell>
                <mxCell id="33" value="" style="endArrow=none;dashed=1;html=1;entryX=-0.018;entryY=0.356;entryDx=0;entryDy=0;entryPerimeter=0;" parent="1" target="34" edge="1">
                    <mxGeometry width="50" height="50" relative="1" as="geometry">
                        <mxPoint x="610" y="1140" as="sourcePoint"/>
                        <mxPoint x="740" y="1140" as="targetPoint"/>
                    </mxGeometry>
                </mxCell>
                <mxCell id="34" value="Div Para Apresentar Informações de Contato Adicionado" style="shape=document;whiteSpace=wrap;html=1;boundedLbl=1;" parent="1" vertex="1">
                    <mxGeometry x="760" y="1110" width="120" height="80" as="geometry"/>
                </mxCell>
                <mxCell id="bINuLT4VQENpxOTbRYPq-56" value="" style="endArrow=none;dashed=1;html=1;" edge="1" parent="1">
                    <mxGeometry width="50" height="50" relative="1" as="geometry">
                        <mxPoint x="120" y="450" as="sourcePoint"/>
                        <mxPoint x="200" y="380" as="targetPoint"/>
                    </mxGeometry>
                </mxCell>
            </root>
        </mxGraphModel>
    </diagram>
    <diagram id="NmLHjy7xTl6YVaEZHCoK" name="Script">
        <mxGraphModel dx="135" dy="563" grid="1" gridSize="10" guides="1" tooltips="1" connect="1" arrows="1" fold="1" page="1" pageScale="1" pageWidth="827" pageHeight="1169" math="0" shadow="0">
            <root>
                <mxCell id="0"/>
                <mxCell id="1" parent="0"/>
                <mxCell id="PGqUBchcUpZznbAU4wox-1" value="" style="edgeStyle=none;html=1;" edge="1" parent="1" source="PGqUBchcUpZznbAU4wox-2">
                    <mxGeometry relative="1" as="geometry">
                        <mxPoint x="1241" y="275" as="targetPoint"/>
                    </mxGeometry>
                </mxCell>
                <mxCell id="PGqUBchcUpZznbAU4wox-2" value="Início" style="rounded=1;whiteSpace=wrap;html=1;" vertex="1" parent="1">
                    <mxGeometry x="1181" y="135" width="120" height="60" as="geometry"/>
                </mxCell>
                <mxCell id="PGqUBchcUpZznbAU4wox-3" value="" style="edgeStyle=none;html=1;" edge="1" parent="1" source="PGqUBchcUpZznbAU4wox-4" target="PGqUBchcUpZznbAU4wox-6">
                    <mxGeometry relative="1" as="geometry"/>
                </mxCell>
                <mxCell id="PGqUBchcUpZznbAU4wox-4" value="Obter o elemento form" style="shape=parallelogram;perimeter=parallelogramPerimeter;whiteSpace=wrap;html=1;fixedSize=1;" vertex="1" parent="1">
                    <mxGeometry x="1181" y="275" width="120" height="60" as="geometry"/>
                </mxCell>
                <mxCell id="PGqUBchcUpZznbAU4wox-5" value="" style="edgeStyle=none;html=1;" edge="1" parent="1" source="PGqUBchcUpZznbAU4wox-6" target="PGqUBchcUpZznbAU4wox-7">
                    <mxGeometry relative="1" as="geometry"/>
                </mxCell>
                <mxCell id="PGqUBchcUpZznbAU4wox-6" value="Adicionar o evento de submissão e incluir uma função anônima&amp;nbsp;" style="whiteSpace=wrap;html=1;" vertex="1" parent="1">
                    <mxGeometry x="1181" y="415" width="120" height="60" as="geometry"/>
                </mxCell>
                <mxCell id="PGqUBchcUpZznbAU4wox-7" value="Fim" style="rounded=1;whiteSpace=wrap;html=1;" vertex="1" parent="1">
                    <mxGeometry x="1181" y="560" width="120" height="60" as="geometry"/>
                </mxCell>
            </root>
        </mxGraphModel>
    </diagram>
    <diagram id="muctN1dxBXDqmKCFW2GB" name="Função Anônima">
        <mxGraphModel dx="135" dy="563" grid="1" gridSize="10" guides="1" tooltips="1" connect="1" arrows="1" fold="1" page="1" pageScale="1" pageWidth="827" pageHeight="1169" math="0" shadow="0">
            <root>
                <mxCell id="0"/>
                <mxCell id="1" parent="0"/>
                <mxCell id="X3BV0Vmb8rcvsG01S_V--1" value="" style="edgeStyle=none;html=1;" edge="1" parent="1" source="X3BV0Vmb8rcvsG01S_V--2" target="X3BV0Vmb8rcvsG01S_V--4">
                    <mxGeometry relative="1" as="geometry"/>
                </mxCell>
                <mxCell id="X3BV0Vmb8rcvsG01S_V--2" value="Obter os elementos e seus valores dos campos preenchidos pelo usuário" style="shape=parallelogram;perimeter=parallelogramPerimeter;whiteSpace=wrap;html=1;fixedSize=1;" vertex="1" parent="1">
                    <mxGeometry x="1191" y="240" width="120" height="60" as="geometry"/>
                </mxCell>
                <mxCell id="X3BV0Vmb8rcvsG01S_V--3" value="" style="edgeStyle=none;html=1;" edge="1" parent="1" source="X3BV0Vmb8rcvsG01S_V--4" target="X3BV0Vmb8rcvsG01S_V--6">
                    <mxGeometry relative="1" as="geometry"/>
                </mxCell>
                <mxCell id="X3BV0Vmb8rcvsG01S_V--4" value="Incluir esses dados em um objeto" style="whiteSpace=wrap;html=1;" vertex="1" parent="1">
                    <mxGeometry x="1191" y="360" width="120" height="60" as="geometry"/>
                </mxCell>
                <mxCell id="X3BV0Vmb8rcvsG01S_V--5" value="" style="edgeStyle=none;html=1;entryX=0.583;entryY=0;entryDx=0;entryDy=0;entryPerimeter=0;" edge="1" parent="1" source="X3BV0Vmb8rcvsG01S_V--6">
                    <mxGeometry relative="1" as="geometry">
                        <Array as="points">
                            <mxPoint x="1251" y="550"/>
                        </Array>
                        <mxPoint x="1250.96" y="570" as="targetPoint"/>
                    </mxGeometry>
                </mxCell>
                <mxCell id="X3BV0Vmb8rcvsG01S_V--6" value="Obter o elemento div" style="shape=parallelogram;perimeter=parallelogramPerimeter;whiteSpace=wrap;html=1;fixedSize=1;" vertex="1" parent="1">
                    <mxGeometry x="1191" y="470" width="120" height="60" as="geometry"/>
                </mxCell>
                <mxCell id="r2cbiPUfeFzxYtThhBrT-2" value="" style="edgeStyle=none;html=1;" edge="1" parent="1" source="r2cbiPUfeFzxYtThhBrT-1" target="X3BV0Vmb8rcvsG01S_V--2">
                    <mxGeometry relative="1" as="geometry"/>
                </mxCell>
                <mxCell id="r2cbiPUfeFzxYtThhBrT-1" value="Adicionar no evento do formulário o&amp;nbsp;&lt;span style=&quot;color: rgb(97, 175, 239); background-color: rgb(40, 44, 52); font-family: Consolas, &amp;quot;Courier New&amp;quot;, monospace; font-size: 16px;&quot;&gt;preventDefault&lt;/span&gt;" style="rounded=0;whiteSpace=wrap;html=1;" vertex="1" parent="1">
                    <mxGeometry x="1191" y="110" width="120" height="60" as="geometry"/>
                </mxCell>
                <mxCell id="r2cbiPUfeFzxYtThhBrT-3" value="Incluir os itens do objeto no div com innerHTML" style="rounded=0;whiteSpace=wrap;html=1;" vertex="1" parent="1">
                    <mxGeometry x="1191" y="570" width="120" height="60" as="geometry"/>
                </mxCell>
            </root>
        </mxGraphModel>
    </diagram>
</mxfile>